<svg width="14" height="14" viewBox="0 0 14 14" fill="none" xmlns="http://www.w3.org/2000/svg">
<g clip-path="url(#clip0_28_79)">
<path d="M12.25 0H1.75C0.784875 0 0 0.784875 0 1.75V12.25C0 13.2151 0.784875 14 1.75 14H7V9.1875H5.25V7H7V5.25C7 3.80013 8.17513 2.625 9.625 2.625H11.375V4.8125H10.5C10.017 4.8125 9.625 4.767 9.625 5.25V7H11.8125L10.9375 9.1875H9.625V14H12.25C13.2151 14 14 13.2151 14 12.25V1.75C14 0.784875 13.2151 0 12.25 0Z" fill="white"/>
</g>
<defs>
<clipPath id="clip0_28_79">
<rect width="14" height="14" fill="white"/>
</clipPath>
</defs>
</svg>
