<svg width="56" height="56" viewBox="0 0 56 56" fill="none" xmlns="http://www.w3.org/2000/svg">
<g id="location (3) 1">
<g id="Group">
<path id="Vector" d="M28.0002 26.9275C31.6187 26.9275 34.5625 23.9836 34.5625 20.365C34.5625 16.7465 31.6187 13.8025 28.0002 13.8025C24.3815 13.8025 21.4375 16.7465 21.4375 20.365C21.4375 23.9836 24.3815 26.9275 28.0002 26.9275ZM28.0002 17.0838C29.8094 17.0838 31.2812 18.5557 31.2812 20.365C31.2812 22.1743 29.8094 23.6463 28.0002 23.6463C26.1908 23.6463 24.7188 22.1743 24.7188 20.365C24.7188 18.5557 26.1908 17.0838 28.0002 17.0838Z" fill="#00AD33"/>
<path id="Vector_2" d="M48.8754 37.7344H37.8951C43.0223 32.8404 47.6874 28.0432 47.6874 19.6875C47.6874 8.42931 39.2338 0 28.0002 0C16.7437 0 8.31244 8.45436 8.31244 19.6875C8.31244 28.0432 12.9777 32.8404 18.105 37.7344H7.12452L1.12476 56H54.8751L48.8754 37.7344ZM11.5937 19.6875C11.5937 10.1811 18.4936 3.28125 28.0002 3.28125C37.5065 3.28125 44.4062 10.1811 44.4062 19.6875C44.4062 30.3229 35.4291 34.0898 28.0002 43.2494C25.7676 40.4969 23.3799 38.2248 21.0581 36.0158C15.7703 30.9844 11.5937 27.0103 11.5937 19.6875ZM6.98561 48.6719H18.8124V45.3906H8.0634L9.50047 41.0156H21.4374V40.9419C25.7956 45.2636 26.9747 47.4297 28.0002 48.7213C29.051 47.3977 30.1916 45.2767 34.5624 40.9421V41.0156H46.4995L47.9366 45.3906H37.1874V48.6719H49.0143L50.3435 52.7188H5.65638L6.98561 48.6719Z" fill="#00AD33"/>
</g>
</g>
</svg>
