<svg width="14" height="14" viewBox="0 0 14 14" fill="none" xmlns="http://www.w3.org/2000/svg">
<g opacity="0.5">
<path d="M13.405 3.115C13.0252 2.4395 12.6131 2.31525 11.774 2.268C10.9358 2.21113 8.82788 2.1875 7.00175 2.1875C5.17212 2.1875 3.06337 2.21113 2.226 2.26713C1.38862 2.31525 0.975625 2.43862 0.592375 3.115C0.20125 3.78962 0 4.95163 0 6.99738C0 6.99913 0 7 0 7C0 7.00175 0 7.00263 0 7.00263V7.00437C0 9.04138 0.20125 10.2121 0.592375 10.8798C0.975625 11.5553 1.38775 11.6778 2.22513 11.7346C3.06337 11.7836 5.17212 11.8125 7.00175 11.8125C8.82788 11.8125 10.9358 11.7836 11.7749 11.7355C12.614 11.6786 13.0261 11.5561 13.4059 10.8806C13.8005 10.213 14 9.04225 14 7.00525C14 7.00525 14 7.00263 14 7.00088C14 7.00088 14 6.99913 14 6.99825C14 4.95163 13.8005 3.78962 13.405 3.115ZM5.25 9.625V4.375L9.625 7L5.25 9.625Z" fill="white"/>
</g>
</svg>
